<?xml version="1.0" encoding="UTF-8" standalone="no"?>
<!DOCTYPE svg PUBLIC "-//W3C//DTD SVG 1.1//EN" "http://www.w3.org/Graphics/SVG/1.1/DTD/svg11.dtd">
<svg width="100%" height="100%" viewBox="0 0 1402 582" version="1.1" xmlns="http://www.w3.org/2000/svg" xmlns:xlink="http://www.w3.org/1999/xlink" xml:space="preserve" xmlns:serif="http://www.serif.com/" style="fill-rule:evenodd;clip-rule:evenodd;stroke-linejoin:round;stroke-miterlimit:2;">
    <g id="g393" transform="matrix(3.77953,0,0,3.77953,269.692,-330.097)">
        <g transform="matrix(0.348422,0,0,0.348422,-178.235,-25.1775)">
            <text x="771.551px" y="608.444px" style="font-family:'Arial-BoldMT', 'Arial', sans-serif;font-weight:700;font-size:192px;fill:white;">PD</text>
            <text x="1038.27px" y="608.444px" style="font-family:'Arial-BoldMT', 'Arial', sans-serif;font-weight:700;font-size:192px;fill:rgb(243,108,45);">F</text>
            <text x="1149.21px" y="608.444px" style="font-family:'Arial-BoldMT', 'Arial', sans-serif;font-weight:700;font-size:192px;fill:rgb(243,108,45);">o</text>
            <text x="1265.92px" y="608.444px" style="font-family:'Arial-BoldMT', 'Arial', sans-serif;font-weight:700;font-size:192px;fill:rgb(243,108,45);">x</text>
        </g>
        <g transform="matrix(0.328182,0,0,0.328182,-100.007,59.038)">
            <path d="M294,191.171L294,191.171C308.697,191.106 323.327,192.511 334,195.393C340.569,197.166 339.085,198.312 353.951,180C359.533,173.125 366.439,164.616 369.3,161.092C372.16,157.568 377.2,151.451 380.5,147.498C383.8,143.546 391.9,133.635 398.5,125.475C405.1,117.316 412.075,108.77 414,106.486C415.925,104.201 420.65,98.466 424.5,93.742C428.562,88.758 431.748,85.645 432.09,86.326C432.414,86.972 433.634,91.325 434.8,96C451.336,162.281 450.498,212.405 431.938,267.239C427.964,278.979 427.964,278.979 431.388,285.777C439.701,302.286 453.974,344.481 453.997,352.619C453.999,353.235 447.813,355.888 440.25,358.516C389.211,376.25 354.165,400.428 333.731,432C325.694,444.417 317.867,450.677 307.877,452.675C304.571,453.336 304.571,453.336 309.882,447.229C322.322,432.926 318.981,424.877 300,423.361L300,423.385C295.264,422.991 290.819,423.109 286.528,423.495C268.854,425.306 266.006,433.304 278.118,447.229C283.429,453.336 283.429,453.336 280.123,452.675C270.133,450.677 262.306,444.417 254.269,432C233.835,400.428 198.789,376.25 147.75,358.516C140.188,355.888 134.001,353.235 134.003,352.619C134.026,344.481 148.299,302.286 156.612,285.777C160.036,278.979 160.036,278.979 156.062,267.239C137.502,212.405 136.664,162.281 153.2,96C154.366,91.325 155.586,86.972 155.91,86.326C156.252,85.645 159.439,88.758 163.5,93.742C167.35,98.466 172.075,104.201 174,106.486C175.925,108.77 182.9,117.316 189.5,125.475C196.1,133.635 204.2,143.546 207.5,147.498C210.8,151.451 215.84,157.568 218.7,161.092C221.561,164.616 228.467,173.125 234.049,180C248.915,198.312 247.431,197.166 254,195.393C262.705,193.042 274.042,191.674 285.899,191.285L285.904,191.285C288.585,191.197 291.291,191.159 294,191.171ZM260.582,363.25C254.483,347.374 249.118,341.728 238.49,339.998C221.847,337.29 214.256,332.112 209.507,320.231C206.042,311.561 206.081,311.601 197.927,308.402C188.654,304.763 189.175,304 200.935,304C238.737,304 261.786,324.109 263.688,358.75C264.408,371.857 264.074,372.341 260.582,363.25ZM327.418,363.25C333.517,347.374 338.882,341.728 349.51,339.998C366.153,337.29 373.744,332.112 378.493,320.231C381.958,311.561 381.919,311.601 390.073,308.402C399.347,304.763 398.825,304 387.065,304C349.263,304 326.214,324.109 324.312,358.75C323.592,371.857 323.926,372.341 327.418,363.25ZM172.59,256C162.674,229.74 157.943,169.912 163.475,140.75C165.747,128.773 165.479,128.759 172.763,141.25C176.051,146.888 182.036,157.125 186.063,164C198.09,184.529 215.004,214.372 214.944,214.955C214.913,215.255 212.197,217.75 208.91,220.5C202.159,226.146 186.032,242.478 178.299,251.5C174.592,255.825 172.998,257.081 172.59,256ZM415.41,256C425.326,229.74 430.057,169.912 424.525,140.75C422.253,128.773 422.521,128.759 415.237,141.25C411.949,146.888 405.964,157.125 401.937,164C389.91,184.529 372.996,214.372 373.056,214.955C373.087,215.255 375.803,217.75 379.091,220.5C385.841,226.146 401.968,242.478 409.701,251.5C413.408,255.825 415.002,257.081 415.41,256Z" style="fill:rgb(245,109,23);"/>
        </g>
        <g transform="matrix(0.264583,0,0,0.264583,-105.626,56.911)">
            <path d="M544.085,578.015L545.829,577.008C588.247,552.518 614.377,507.258 614.377,458.278L614.377,268.257C614.377,261.743 610.445,255.875 604.421,253.399L597.214,250.437C597.678,241.187 597.763,231.836 597.468,222.323L614.342,229.259C630.154,235.757 640.477,251.161 640.477,268.257L640.477,458.278C640.477,516.583 609.372,570.459 558.879,599.611C499.429,633.935 424.574,677.152 396.41,693.413C389.349,697.489 380.651,697.489 373.59,693.413C345.426,677.152 270.571,633.935 211.121,599.611C160.628,570.459 129.523,516.583 129.523,458.278L129.523,268.257C129.523,251.161 139.846,235.757 155.658,229.259L174.371,221.568C174.055,231.09 174.119,240.452 174.564,249.706L165.579,253.399C159.555,255.875 155.623,261.743 155.623,268.257L155.623,458.278C155.623,507.258 181.753,552.518 224.171,577.008L225.692,577.886L247.465,497.5L273.066,510.509C281.862,641.756 493.495,620.44 496.676,510.509L522.277,497.5L544.085,578.015ZM292.767,172.907L327.515,158.626C364.344,143.49 405.656,143.49 442.485,158.626L478.59,173.465L461.31,194.581L432.563,182.766C402.091,170.243 367.909,170.243 337.437,182.766L310.047,194.024L292.767,172.907Z" style="fill:rgb(243,108,45);"/>
        </g>
        <g id="path399" transform="matrix(0.264583,0,0,0.264583,-105.906,56.911)">
            <path d="M386,666.278C370.776,666.148 359.144,653.606 348.792,644.5C323.83,622.544 298.176,598.785 286.381,566.735C281.796,554.274 278.37,541.397 275.213,528.5C274.176,524.268 272.289,509.736 272.944,509.84C278.401,510.706 285.938,515.164 289.897,518.85C304.547,532.49 312.73,551.303 325.409,566.5C341.909,586.278 369.146,596.839 394.67,593.415C420.944,589.89 442.137,572.095 457.508,551.563C466.677,539.314 473.309,524.689 485.555,514.92C488.604,512.488 495.075,509.46 499.174,509.84C501.075,510.017 497.941,524.268 496.905,528.5C493.747,541.397 490.322,554.274 485.736,566.735C473.941,598.785 448.287,622.544 423.326,644.5C412.973,653.606 401.342,666.148 386.117,666.278L386.117,666.279L386.059,666.279L386,666.279L386,666.278ZM431.402,550C442.548,515.639 451.655,471.375 488.471,454.895C494.745,452.086 501.225,449.619 507.903,447.991C514.551,446.37 521.405,445.513 528.24,445.197C539.524,444.675 573.609,444.467 584.798,445.863C585.94,446.006 574.951,452.775 572.5,453.745C559.188,459.014 545.64,463.703 532.5,469.386C515.766,476.623 491.913,489.133 477.186,499.996C460.851,512.044 451.108,523.943 438.636,539.739C436.701,542.191 435.285,545.013 433.485,547.565C432.87,548.438 431.023,550.998 431.402,550ZM340.715,550C329.57,515.639 320.462,471.375 283.646,454.895C277.372,452.086 270.892,449.619 264.214,447.991C257.566,446.37 250.713,445.513 243.878,445.197C232.593,444.675 200.509,444.467 189.32,445.863C188.178,446.006 197.166,452.775 199.617,453.745C212.929,459.014 226.477,463.703 239.617,469.386C256.351,476.623 280.204,489.133 294.932,499.996C311.266,512.044 321.01,523.943 333.481,539.739C335.416,542.191 336.833,545.013 338.632,547.565C339.248,548.438 341.095,550.998 340.715,550Z" style="fill:rgb(243,147,49);fill-rule:nonzero;"/>
        </g>
    </g>
</svg>
